<svg xmlns="http://www.w3.org/2000/svg" version="1.1" xmlns:xlink="http://www.w3.org/1999/xlink" xmlns:svgjs="http://svgjs.dev/svgjs" width="1500" height="1500" viewBox="0 0 1500 1500"><rect width="1500" height="1500" fill="#f9f9f9"></rect><g transform="matrix(0.6666666666666666,0,0,0.6666666666666666,249.39393939393938,438.5856950067477)"><svg viewBox="0 0 396 247" data-background-color="#f9f9f9" preserveAspectRatio="xMidYMid meet" height="935" width="1500" xmlns="http://www.w3.org/2000/svg" xmlns:xlink="http://www.w3.org/1999/xlink"><g id="tight-bounds" transform="matrix(1,0,0,1,0.2400000000000091,-0.09999999999999432)"><svg viewBox="0 0 395.52 247.2" height="247.2" width="395.52"><g><svg></svg></g><g><svg viewBox="0 0 395.52 247.2" height="247.2" width="395.52"><mask id="ab9a5c4d-4ed6-4dc8-8259-e98bd7beba3d"><rect width="640" height="400" fill="white"></rect><g transform="matrix(1,0,0,1,39.55199999999999,105.12688404292142)"><svg viewBox="0 0 316.416 36.946231914157146" height="36.946231914157146" width="316.416"><g><svg viewBox="0 0 316.416 36.946231914157146" height="36.946231914157146" width="316.416"><g><svg viewBox="0 0 316.416 36.946231914157146" height="36.946231914157146" width="316.416"><g><svg viewBox="0 0 316.416 36.946231914157146" height="36.946231914157146" width="316.416"><g id="SvgjsG2611"><svg viewBox="0 0 316.416 36.946231914157146" height="36.946231914157146" width="316.416" id="SvgjsSvg2610"><g><svg viewBox="0 0 316.416 36.946231914157146" height="36.946231914157146" width="316.416"><g transform="matrix(1,0,0,1,0,0)"><svg width="316.416" viewBox="-3.25 -40.75 434.31 51.6" height="36.946231914157146" data-palette-color="#030303"><path d="M11.55 6.85L11.55 6.85Q8.8 6.85 6.33 5.7 3.85 4.55 2.3 2.13 0.75-0.3 0.75-4.15L0.75-4.15 1.6-4.5Q3.7-1.5 5.9-0.28 8.1 0.95 10 0.95L10 0.95Q11.65 0.95 12.95 0.23 14.25-0.5 15.03-1.65 15.8-2.8 15.8-4.1L15.8-4.1Q15.8-5.4 15.28-6.58 14.75-7.75 13.75-8.3L13.75-8.3Q12.65-7.5 11.75-7.13 10.85-6.75 10.05-6.75L10.05-6.75Q8.45-6.75 7.58-7.95 6.7-9.15 6.7-10.5L6.7-10.5Q6.7-11.8 7.48-12.8 8.25-13.8 9.85-13.8L9.85-13.8Q11.1-13.8 12.6-13.15L12.6-13.15Q14.2-15.1 14.88-16.75 15.55-18.4 15.55-19.7L15.55-19.7Q15.55-21.45 14.58-22.45 13.6-23.45 12.45-23.45L12.45-23.45Q11.3-23.45 10.33-22.38 9.35-21.3 9.35-18.95L9.35-18.95Q9.35-18.3 9.45-17.55 9.55-16.8 9.75-15.95L9.75-15.95Q6.25-15.95 4.48-17.6 2.7-19.25 2.7-21.35L2.7-21.35Q2.7-23 3.83-24.58 4.95-26.15 7.23-27.18 9.5-28.2 13-28.2L13-28.2Q16.45-28.2 18.78-27.18 21.1-26.15 22.28-24.45 23.45-22.75 23.45-20.7L23.45-20.7Q23.45-18.25 21.7-15.73 19.95-13.2 16.35-11.3L16.35-11.3Q19.1-11.05 20.83-9.9 22.55-8.75 23.35-7.13 24.15-5.5 24.15-3.65L24.15-3.65Q24.15-1.2 23.08 0.73 22 2.65 20.18 4.03 18.35 5.4 16.1 6.13 13.85 6.85 11.55 6.85ZM39 0.35L39 0.35Q34.45 0.35 31.55-1.35 28.65-3.05 28.65-6.9L28.65-6.9Q28.65-7.3 28.67-7.63 28.7-7.95 28.75-8.15L28.75-8.15Q28.95-9.55 29.6-11.6 30.25-13.65 31.1-15.98 31.95-18.3 32.75-20.55 33.55-22.8 34.1-24.68 34.65-26.55 34.65-27.7L34.65-27.7Q34.65-29 33.8-29L33.8-29Q32.85-29 31.45-27.58 30.05-26.15 28.5-23.6L28.5-23.6 28.2-23.75Q28.2-27.05 29.5-29.45 30.8-31.85 32.95-33.43 35.1-35 37.75-35.75 40.4-36.5 43.1-36.5L43.1-36.5Q46.45-36.5 49.4-35.43 52.35-34.35 54.22-32.35 56.1-30.35 56.1-27.45L56.1-27.45Q56.1-22.25 49.75-19.35L49.75-19.35Q53.5-18.5 55.25-16.5 57-14.5 57-12.05L57-12.05Q57-9.9 55.72-7.73 54.45-5.55 52.1-3.73 49.75-1.9 46.42-0.78 43.1 0.35 39 0.35ZM40.95-20.85L40.95-20.85Q43.25-20.8 44.97-21.58 46.7-22.35 47.67-23.58 48.65-24.8 48.65-26.1L48.65-26.1Q48.65-27.8 46.85-29.13 45.05-30.45 41.2-30.45L41.2-30.45Q41.4-29.5 41.47-28.55 41.55-27.6 41.55-26.7L41.55-26.7Q41.55-25.25 41.37-23.8 41.2-22.35 40.95-20.85ZM40.4-5.75L40.4-5.75Q42.55-5.75 44.2-6.63 45.85-7.5 46.8-8.88 47.75-10.25 47.75-11.7L47.75-11.7Q47.75-13.7 45.85-15.4 43.95-17.1 39.9-17.5L39.9-17.5Q39.7-15.95 39.07-14.2 38.45-12.45 37.9-10.85 37.35-9.25 37.35-8.05L37.35-8.05Q37.35-7 38-6.38 38.65-5.75 40.4-5.75ZM80.05 0.35L80.05 0.35Q78.59 0.35 76.7-0.15 74.8-0.65 72.72-1.3 70.65-1.95 68.55-2.35L68.55-2.35Q66.89-0.95 65.52-0.33 64.14 0.3 63.05 0.3L63.05 0.3Q61.2 0.3 60.25-1.13 59.3-2.55 59.3-4.3L59.3-4.3Q59.3-5.55 59.8-6.73 60.3-7.9 61.27-8.65 62.25-9.4 63.75-9.4L63.75-9.4Q64.59-9.4 65.67-9.08 66.75-8.75 68-8.05L68-8.05Q70.15-9.65 71.7-11.75 73.25-13.85 74.07-15.98 74.9-18.1 74.9-19.8L74.9-19.8Q74.9-21.35 74.22-22.33 73.55-23.3 72.25-23.3L72.25-23.3Q70.7-23.3 69.87-21.93 69.05-20.55 69.05-18.6L69.05-18.6Q69.05-17.6 69.27-16.53 69.5-15.45 70-14.4L70-14.4Q67.34-14.4 65.52-15.33 63.7-16.25 62.75-17.73 61.8-19.2 61.8-20.85L61.8-20.85Q61.8-22.65 62.97-24.35 64.14-26.05 66.57-27.13 69-28.2 72.7-28.2L72.7-28.2Q76.3-28.2 78.57-27.13 80.84-26.05 81.92-24.25 83-22.45 83-20.25L83-20.25Q83-17.95 81.9-15.48 80.8-13 78.77-10.73 76.75-8.45 73.9-6.7L73.9-6.7Q74.59-6.6 75.34-6.5 76.09-6.4 76.84-6.4L76.84-6.4Q78.7-6.4 80.45-7.13 82.2-7.85 83.8-9.85L83.8-9.85Q84.7-9.3 85.2-8.15 85.7-7 85.7-5.65L85.7-5.65Q85.7-4.25 85.09-2.85 84.5-1.45 83.25-0.55 82 0.35 80.05 0.35ZM109.29 0.35L109.29 0.35Q104.74 0.35 101.84-1.35 98.94-3.05 98.94-6.9L98.94-6.9Q98.94-7.3 98.97-7.63 98.99-7.95 99.04-8.15L99.04-8.15Q99.24-9.55 99.89-11.6 100.54-13.65 101.39-15.98 102.24-18.3 103.04-20.55 103.84-22.8 104.39-24.68 104.94-26.55 104.94-27.7L104.94-27.7Q104.94-29 104.09-29L104.09-29Q103.14-29 101.74-27.58 100.34-26.15 98.79-23.6L98.79-23.6 98.49-23.75Q98.49-27.05 99.79-29.45 101.09-31.85 103.24-33.43 105.39-35 108.04-35.75 110.69-36.5 113.39-36.5L113.39-36.5Q116.74-36.5 119.69-35.43 122.64-34.35 124.52-32.35 126.39-30.35 126.39-27.45L126.39-27.45Q126.39-22.25 120.04-19.35L120.04-19.35Q123.79-18.5 125.54-16.5 127.29-14.5 127.29-12.05L127.29-12.05Q127.29-9.9 126.02-7.73 124.74-5.55 122.39-3.73 120.04-1.9 116.72-0.78 113.39 0.35 109.29 0.35ZM111.24-20.85L111.24-20.85Q113.54-20.8 115.27-21.58 116.99-22.35 117.97-23.58 118.94-24.8 118.94-26.1L118.94-26.1Q118.94-27.8 117.14-29.13 115.34-30.45 111.49-30.45L111.49-30.45Q111.69-29.5 111.77-28.55 111.84-27.6 111.84-26.7L111.84-26.7Q111.84-25.25 111.67-23.8 111.49-22.35 111.24-20.85ZM110.69-5.75L110.69-5.75Q112.84-5.75 114.49-6.63 116.14-7.5 117.09-8.88 118.04-10.25 118.04-11.7L118.04-11.7Q118.04-13.7 116.14-15.4 114.24-17.1 110.19-17.5L110.19-17.5Q109.99-15.95 109.37-14.2 108.74-12.45 108.19-10.85 107.64-9.25 107.64-8.05L107.64-8.05Q107.64-7 108.29-6.38 108.94-5.75 110.69-5.75ZM133.89 0.25L133.89 0.25Q132.49 0.25 131.41-0.93 130.34-2.1 130.34-5.3L130.34-5.3Q130.34-5.85 130.36-6.28 130.39-6.7 130.39-6.9L130.39-6.9Q130.59-8.9 130.96-11.88 131.34-14.85 131.84-18.13 132.34-21.4 132.86-24.45 133.39-27.5 133.84-29.78 134.29-32.05 134.59-32.9L134.59-32.9Q135.14-34.4 136.56-35.27 137.99-36.15 139.49-36.15L139.49-36.15Q140.79-36.15 141.86-35.4 142.94-34.65 143.34-32.85L143.34-32.85Q143.04-31.85 142.39-29.33 141.74-26.8 140.99-23.15 140.24-19.5 139.56-15.1 138.89-10.7 138.49-5.9L138.49-5.9Q138.44-5.05 138.34-3.93 138.24-2.8 138.19-1.65L138.19-1.65Q137.59-1 136.39-0.38 135.19 0.25 133.89 0.25ZM168.49 0.35L168.49 0.35Q166.69 0.35 164.41-0.3 162.14-0.95 159.66-1.73 157.19-2.5 154.74-2.85L154.74-2.85Q153.03-1.25 151.56-0.58 150.09 0.1 148.94 0.1L148.94 0.1Q147.49 0.1 146.49-0.75 145.49-1.6 144.99-2.93 144.49-4.25 144.49-5.65L144.49-5.65Q144.49-7.1 145.01-8.4 145.53-9.7 146.64-10.53 147.74-11.35 149.44-11.35L149.44-11.35Q149.78-11.35 150.19-11.3 150.59-11.25 151.03-11.15L151.03-11.15Q151.99-14.05 152.71-17.57 153.44-21.1 153.86-24.5 154.28-27.9 154.28-30.4L154.28-30.4Q154.28-31.4 154.19-31.83 154.09-32.25 153.84-32.7L153.84-32.7 153.78-32.85Q154.39-34.45 155.78-35.35 157.19-36.25 158.74-36.25L158.74-36.25Q160.44-36.25 161.53-35.02 162.64-33.8 162.64-30.95L162.64-30.95Q162.64-29.15 162.21-26.48 161.78-23.8 161.03-20.73 160.28-17.65 159.39-14.65 158.49-11.65 157.59-9.3L157.59-9.3Q159.78-8.8 162.01-8.15 164.24-7.5 166.39-7.5L166.39-7.5Q168.04-7.5 169.56-8.1 171.09-8.7 172.44-10.3L172.44-10.3Q173.44-9.65 173.91-8.45 174.39-7.25 174.39-5.9L174.39-5.9Q174.39-4.4 173.76-2.98 173.14-1.55 171.84-0.6 170.54 0.35 168.49 0.35ZM199.68 0.35L199.68 0.35Q197.88 0.35 195.61-0.3 193.33-0.95 190.86-1.73 188.38-2.5 185.93-2.85L185.93-2.85Q184.23-1.25 182.76-0.58 181.28 0.1 180.13 0.1L180.13 0.1Q178.68 0.1 177.68-0.75 176.68-1.6 176.18-2.93 175.68-4.25 175.68-5.65L175.68-5.65Q175.68-7.1 176.21-8.4 176.73-9.7 177.83-10.53 178.93-11.35 180.63-11.35L180.63-11.35Q180.98-11.35 181.38-11.3 181.78-11.25 182.23-11.15L182.23-11.15Q183.18-14.05 183.91-17.57 184.63-21.1 185.06-24.5 185.48-27.9 185.48-30.4L185.48-30.4Q185.48-31.4 185.38-31.83 185.28-32.25 185.03-32.7L185.03-32.7 184.98-32.85Q185.58-34.45 186.98-35.35 188.38-36.25 189.93-36.25L189.93-36.25Q191.63-36.25 192.73-35.02 193.83-33.8 193.83-30.95L193.83-30.95Q193.83-29.15 193.41-26.48 192.98-23.8 192.23-20.73 191.48-17.65 190.58-14.65 189.68-11.65 188.78-9.3L188.78-9.3Q190.98-8.8 193.21-8.15 195.43-7.5 197.58-7.5L197.58-7.5Q199.23-7.5 200.76-8.1 202.28-8.7 203.63-10.3L203.63-10.3Q204.63-9.65 205.11-8.45 205.58-7.25 205.58-5.9L205.58-5.9Q205.58-4.4 204.96-2.98 204.33-1.55 203.03-0.6 201.73 0.35 199.68 0.35ZM231.23 0.2L231.23 0.2Q229.78 0.25 228.33-0.05 226.88-0.35 225.88-1.3L225.88-1.3Q225.93-2.55 225.85-5 225.78-7.45 225.58-10.48 225.38-13.5 224.95-16.6 224.53-19.7 223.85-22.33 223.18-24.95 222.23-26.55 221.28-28.15 219.98-28.15L219.98-28.15Q218.83-28.15 217.38-26.9L217.38-26.9 217.03-27.2Q218.43-31.5 220.7-33.75 222.98-36 225.43-36L225.43-36Q227.58-36 229.03-34.5 230.48-33 231.35-30.48 232.23-27.95 232.6-24.83 232.98-21.7 232.98-18.45L232.98-18.45Q232.98-15.85 232.78-13.35 232.58-10.85 232.23-8.75L232.23-8.75Q234.88-12.1 236.68-16.07 238.48-20.05 239.43-23.98 240.38-27.9 240.38-31.05L240.38-31.05Q240.38-31.65 240.33-32.27 240.28-32.9 240.18-33.4L240.18-33.4Q241.23-34.75 242.88-35.48 244.53-36.2 246.18-36.2L246.18-36.2Q247.78-36.2 248.98-35.52 250.18-34.85 250.48-33.4L250.48-33.4Q249.83-28.65 247.9-23.9 245.98-19.15 243.23-14.73 240.48-10.3 237.35-6.5 234.23-2.7 231.23 0.2ZM260.38 0.35L260.38 0.35Q257.03 0.35 254.83-0.88 252.63-2.1 251.58-4.08 250.53-6.05 250.53-8.35L250.53-8.35Q250.53-10.4 251.33-12.4 252.13-14.4 253.7-16.05 255.28-17.7 257.53-18.65L257.53-18.65Q255.48-19.95 254.45-21.78 253.43-23.6 253.43-25.6L253.43-25.6Q253.43-28.2 255.13-30.65 256.83-33.1 260.08-34.7 263.33-36.3 267.88-36.3L267.88-36.3Q271.03-36.3 272.9-35.52 274.78-34.75 275.63-33.52 276.48-32.3 276.48-30.9L276.48-30.9Q276.48-29.3 275.48-27.73 274.48-26.15 272.6-25.15 270.73-24.15 268.03-24.15L268.03-24.15Q268.83-26.5 268.83-28.05L268.83-28.05Q268.83-29.6 268.18-30.3 267.53-31 266.58-31L266.58-31Q265.58-31 264.45-30.25 263.33-29.5 262.58-28.15 261.83-26.8 261.83-25L261.83-25Q261.83-24.05 262.13-22.88 262.43-21.7 263.08-20.55L263.08-20.55Q264.18-21.25 265.1-21.58 266.03-21.9 266.78-21.9L266.78-21.9Q268.33-21.9 269.03-20.83 269.73-19.75 269.73-18.4L269.73-18.4Q269.73-16.8 268.75-15.35 267.78-13.9 265.88-13.9L265.88-13.9Q264.13-13.9 261.78-15.55L261.78-15.55Q259.03-13.6 259.03-10.95L259.03-10.95Q259.03-8.9 260.3-7.85 261.58-6.8 263.58-6.8L263.58-6.8Q266.13-6.8 269.28-8.58 272.43-10.35 274.88-13.9L274.88-13.9 275.28-13.65Q275.18-10.15 273.85-7.53 272.53-4.9 270.4-3.15 268.28-1.4 265.68-0.53 263.08 0.35 260.38 0.35ZM301.87 0.35L301.87 0.35Q300.12 0.35 298.85-0.53 297.57-1.4 296.65-2.8 295.72-4.2 295.05-5.88 294.37-7.55 293.77-9.1L293.77-9.1Q292.87-11.6 292.12-13.48 291.37-15.35 290.47-16.65L290.47-16.65Q289.52-12.85 288.95-9.35 288.37-5.85 288.22-1.55L288.22-1.55Q287.32-0.7 286.2-0.25 285.07 0.2 283.92 0.2L283.92 0.2Q282.17 0.2 280.82-1.03 279.47-2.25 279.47-5.15L279.47-5.15Q279.47-7.15 280.07-9.65 280.67-12.15 281.55-14.8 282.42-17.45 283.32-19.95 284.22-22.45 284.82-24.48 285.42-26.5 285.42-27.7L285.42-27.7Q285.42-28.95 284.57-28.95L284.57-28.95Q283.62-28.95 282.27-27.53 280.92-26.1 279.52-23.55L279.52-23.55 279.22-23.65Q279.22-26.65 280.52-29 281.82-31.35 284.05-32.98 286.27-34.6 289.2-35.45 292.12-36.3 295.32-36.3L295.32-36.3Q299.57-36.3 302.22-34.98 304.87-33.65 306.15-31.58 307.42-29.5 307.42-27.15L307.42-27.15Q307.42-24.75 306.2-22.45 304.97-20.15 302.75-18.63 300.52-17.1 297.47-16.85L297.47-16.85Q298.52-16.05 299.27-14.83 300.02-13.6 300.82-12.05L300.82-12.05Q301.52-10.65 302.47-9.38 303.42-8.1 305.07-8.1L305.07-8.1Q305.92-8.1 306.47-8.53 307.02-8.95 307.42-9.95L307.42-9.95 307.72-9.8Q307.97-9.05 308.05-8.35 308.12-7.65 308.12-7.05L308.12-7.05Q308.12-3.9 306.37-1.78 304.62 0.35 301.87 0.35ZM292.97-21.25L292.97-21.25Q294.77-21.25 296.1-22.08 297.42-22.9 298.15-24.13 298.87-25.35 298.87-26.6L298.87-26.6Q298.87-28.15 297.7-29.33 296.52-30.5 293.87-30.5L293.87-30.5Q293.47-30.5 293.05-30.48 292.62-30.45 292.22-30.4L292.22-30.4Q292.27-30.05 292.27-29.73 292.27-29.4 292.27-29.4L292.27-29.4Q292.27-27.1 292.1-24.95 291.92-22.8 291.62-21.35L291.62-21.35Q291.97-21.3 292.3-21.28 292.62-21.25 292.97-21.25ZM314.97 0.25L314.97 0.25Q313.57 0.25 312.5-0.93 311.42-2.1 311.42-5.3L311.42-5.3Q311.42-5.85 311.44-6.28 311.47-6.7 311.47-6.9L311.47-6.9Q311.67-8.9 312.05-11.88 312.42-14.85 312.92-18.13 313.42-21.4 313.94-24.45 314.47-27.5 314.92-29.78 315.37-32.05 315.67-32.9L315.67-32.9Q316.22-34.4 317.65-35.27 319.07-36.15 320.57-36.15L320.57-36.15Q321.87-36.15 322.94-35.4 324.02-34.65 324.42-32.85L324.42-32.85Q324.12-31.85 323.47-29.33 322.82-26.8 322.07-23.15 321.32-19.5 320.65-15.1 319.97-10.7 319.57-5.9L319.57-5.9Q319.52-5.05 319.42-3.93 319.32-2.8 319.27-1.65L319.27-1.65Q318.67-1 317.47-0.38 316.27 0.25 314.97 0.25ZM332.77 0.2L332.77 0.2Q330.97 0.2 329.52-1.3 328.07-2.8 328.07-6.25L328.07-6.25Q328.07-9.05 328.72-11.75 329.37-14.45 330.19-17.23 331.02-20 331.59-22.98 332.17-25.95 331.97-29.25L331.97-29.25Q330.62-29.05 329.32-28.55 328.02-28.05 326.77-27.1L326.77-27.1Q326.77-30.25 327.32-32.23 327.87-34.2 329.47-35.1 331.07-36 334.22-36L334.22-36Q335.92-36 338.02-35.75 340.12-35.5 342.34-35.25 344.57-35 346.57-35L346.57-35Q348.52-35 350.07-35.38 351.62-35.75 352.47-36.75L352.47-36.75Q353.47-36.1 353.99-34.98 354.52-33.85 354.52-32.55L354.52-32.55Q354.52-31.2 353.89-29.93 353.27-28.65 351.97-27.83 350.67-27 348.57-27L348.57-27Q346.37-27 343.77-27.7 341.17-28.4 338.42-28.9L338.42-28.9Q338.67-27.8 338.79-26.7 338.92-25.6 338.92-24.45L338.92-24.45Q338.92-23.2 338.82-21.98 338.72-20.75 338.52-19.45L338.52-19.45Q339.57-20 341.07-20.45 342.57-20.9 344.14-21.2 345.72-21.5 346.97-21.5L346.97-21.5Q347.77-21.5 348.37-21.35L348.37-21.35Q348.87-20.3 348.87-18.8L348.87-18.8Q348.87-16.4 347.67-13.9L347.67-13.9 347.32-13.75Q345.47-14.75 343.04-15.3 340.62-15.85 337.97-16.05L337.97-16.05Q337.47-13.2 337.02-10.25 336.57-7.3 336.57-4.2L336.57-4.2Q336.57-3.55 336.59-2.85 336.62-2.15 336.67-1.45L336.67-1.45Q335.02 0.2 332.77 0.2ZM358.12 0.25L358.12 0.25Q356.71 0.25 355.64-0.93 354.56-2.1 354.56-5.3L354.56-5.3Q354.56-5.85 354.59-6.28 354.62-6.7 354.62-6.9L354.62-6.9Q354.81-8.9 355.19-11.88 355.56-14.85 356.06-18.13 356.56-21.4 357.09-24.45 357.62-27.5 358.06-29.78 358.51-32.05 358.81-32.9L358.81-32.9Q359.37-34.4 360.79-35.27 362.21-36.15 363.71-36.15L363.71-36.15Q365.01-36.15 366.09-35.4 367.17-34.65 367.56-32.85L367.56-32.85Q367.26-31.85 366.62-29.33 365.96-26.8 365.21-23.15 364.46-19.5 363.79-15.1 363.12-10.7 362.71-5.9L362.71-5.9Q362.67-5.05 362.56-3.93 362.46-2.8 362.42-1.65L362.42-1.65Q361.81-1 360.62-0.38 359.42 0.25 358.12 0.25ZM379.31 0.35L379.31 0.35Q375.96 0.35 373.76-0.88 371.56-2.1 370.51-4.08 369.46-6.05 369.46-8.35L369.46-8.35Q369.46-10.4 370.26-12.4 371.06-14.4 372.64-16.05 374.21-17.7 376.46-18.65L376.46-18.65Q374.41-19.95 373.39-21.78 372.36-23.6 372.36-25.6L372.36-25.6Q372.36-28.2 374.06-30.65 375.76-33.1 379.01-34.7 382.26-36.3 386.81-36.3L386.81-36.3Q389.96-36.3 391.84-35.52 393.71-34.75 394.56-33.52 395.41-32.3 395.41-30.9L395.41-30.9Q395.41-29.3 394.41-27.73 393.41-26.15 391.54-25.15 389.66-24.15 386.96-24.15L386.96-24.15Q387.76-26.5 387.76-28.05L387.76-28.05Q387.76-29.6 387.11-30.3 386.46-31 385.51-31L385.51-31Q384.51-31 383.39-30.25 382.26-29.5 381.51-28.15 380.76-26.8 380.76-25L380.76-25Q380.76-24.05 381.06-22.88 381.36-21.7 382.01-20.55L382.01-20.55Q383.11-21.25 384.04-21.58 384.96-21.9 385.71-21.9L385.71-21.9Q387.26-21.9 387.96-20.83 388.66-19.75 388.66-18.4L388.66-18.4Q388.66-16.8 387.69-15.35 386.71-13.9 384.81-13.9L384.81-13.9Q383.06-13.9 380.71-15.55L380.71-15.55Q377.96-13.6 377.96-10.95L377.96-10.95Q377.96-8.9 379.24-7.85 380.51-6.8 382.51-6.8L382.51-6.8Q385.06-6.8 388.21-8.58 391.36-10.35 393.81-13.9L393.81-13.9 394.21-13.65Q394.11-10.15 392.79-7.53 391.46-4.9 389.34-3.15 387.21-1.4 384.61-0.53 382.01 0.35 379.31 0.35ZM420.81 0.35L420.81 0.35Q419.06 0.35 417.79-0.53 416.51-1.4 415.59-2.8 414.66-4.2 413.99-5.88 413.31-7.55 412.71-9.1L412.71-9.1Q411.81-11.6 411.06-13.48 410.31-15.35 409.41-16.65L409.41-16.65Q408.46-12.85 407.89-9.35 407.31-5.85 407.16-1.55L407.16-1.55Q406.26-0.7 405.14-0.25 404.01 0.2 402.86 0.2L402.86 0.2Q401.11 0.2 399.76-1.03 398.41-2.25 398.41-5.15L398.41-5.15Q398.41-7.15 399.01-9.65 399.61-12.15 400.49-14.8 401.36-17.45 402.26-19.95 403.16-22.45 403.76-24.48 404.36-26.5 404.36-27.7L404.36-27.7Q404.36-28.95 403.51-28.95L403.51-28.95Q402.56-28.95 401.21-27.53 399.86-26.1 398.46-23.55L398.46-23.55 398.16-23.65Q398.16-26.65 399.46-29 400.76-31.35 402.99-32.98 405.21-34.6 408.14-35.45 411.06-36.3 414.26-36.3L414.26-36.3Q418.51-36.3 421.16-34.98 423.81-33.65 425.09-31.58 426.36-29.5 426.36-27.15L426.36-27.15Q426.36-24.75 425.14-22.45 423.91-20.15 421.69-18.63 419.46-17.1 416.41-16.85L416.41-16.85Q417.46-16.05 418.21-14.83 418.96-13.6 419.76-12.05L419.76-12.05Q420.46-10.65 421.41-9.38 422.36-8.1 424.01-8.1L424.01-8.1Q424.86-8.1 425.41-8.53 425.96-8.95 426.36-9.95L426.36-9.95 426.66-9.8Q426.91-9.05 426.99-8.35 427.06-7.65 427.06-7.05L427.06-7.05Q427.06-3.9 425.31-1.78 423.56 0.35 420.81 0.35ZM411.91-21.25L411.91-21.25Q413.71-21.25 415.04-22.08 416.36-22.9 417.09-24.13 417.81-25.35 417.81-26.6L417.81-26.6Q417.81-28.15 416.64-29.33 415.46-30.5 412.81-30.5L412.81-30.5Q412.41-30.5 411.99-30.48 411.56-30.45 411.16-30.4L411.16-30.4Q411.21-30.05 411.21-29.73 411.21-29.4 411.21-29.4L411.21-29.4Q411.21-27.1 411.04-24.95 410.86-22.8 410.56-21.35L410.56-21.35Q410.91-21.3 411.24-21.28 411.56-21.25 411.91-21.25Z" opacity="1" transform="matrix(1,0,0,1,0,0)" fill="black" class="wordmark-text-0" id="SvgjsPath2609" stroke-width="7" stroke="black" stroke-linejoin="round"></path></svg></g></svg></g></svg></g></svg></g></svg></g></svg></g></svg></g></mask><g transform="matrix(1,0,0,1,39.55199999999999,105.12688404292142)"><svg viewBox="0 0 316.416 36.946231914157146" height="36.946231914157146" width="316.416"><g><svg viewBox="0 0 316.416 36.946231914157146" height="36.946231914157146" width="316.416"><g><svg viewBox="0 0 316.416 36.946231914157146" height="36.946231914157146" width="316.416"><g><svg viewBox="0 0 316.416 36.946231914157146" height="36.946231914157146" width="316.416"><g id="textblocktransform"><svg viewBox="0 0 316.416 36.946231914157146" height="36.946231914157146" width="316.416" id="textblock"><g><svg viewBox="0 0 316.416 36.946231914157146" height="36.946231914157146" width="316.416"><g transform="matrix(1,0,0,1,0,0)"><svg width="316.416" viewBox="-3.25 -40.75 434.31 51.6" height="36.946231914157146" data-palette-color="#030303"><path d="M11.55 6.85L11.55 6.85Q8.8 6.85 6.33 5.7 3.85 4.55 2.3 2.13 0.75-0.3 0.75-4.15L0.75-4.15 1.6-4.5Q3.7-1.5 5.9-0.28 8.1 0.95 10 0.95L10 0.95Q11.65 0.95 12.95 0.23 14.25-0.5 15.03-1.65 15.8-2.8 15.8-4.1L15.8-4.1Q15.8-5.4 15.28-6.58 14.75-7.75 13.75-8.3L13.75-8.3Q12.65-7.5 11.75-7.13 10.85-6.75 10.05-6.75L10.05-6.75Q8.45-6.75 7.58-7.95 6.7-9.15 6.7-10.5L6.7-10.5Q6.7-11.8 7.48-12.8 8.25-13.8 9.85-13.8L9.85-13.8Q11.1-13.8 12.6-13.15L12.6-13.15Q14.2-15.1 14.88-16.75 15.55-18.4 15.55-19.7L15.55-19.7Q15.55-21.45 14.58-22.45 13.6-23.45 12.45-23.45L12.45-23.45Q11.3-23.45 10.33-22.38 9.35-21.3 9.35-18.95L9.35-18.95Q9.35-18.3 9.45-17.55 9.55-16.8 9.75-15.95L9.75-15.95Q6.25-15.95 4.48-17.6 2.7-19.25 2.7-21.35L2.7-21.35Q2.7-23 3.83-24.58 4.95-26.15 7.23-27.18 9.5-28.2 13-28.2L13-28.2Q16.45-28.2 18.78-27.18 21.1-26.15 22.28-24.45 23.45-22.75 23.45-20.7L23.45-20.7Q23.45-18.25 21.7-15.73 19.95-13.2 16.35-11.3L16.35-11.3Q19.1-11.05 20.83-9.9 22.55-8.75 23.35-7.13 24.15-5.5 24.15-3.65L24.15-3.65Q24.15-1.2 23.08 0.73 22 2.65 20.18 4.03 18.35 5.4 16.1 6.13 13.85 6.85 11.55 6.85ZM39 0.35L39 0.35Q34.45 0.35 31.55-1.35 28.65-3.05 28.65-6.9L28.65-6.9Q28.65-7.3 28.67-7.63 28.7-7.95 28.75-8.15L28.75-8.15Q28.95-9.55 29.6-11.6 30.25-13.65 31.1-15.98 31.95-18.3 32.75-20.55 33.55-22.8 34.1-24.68 34.65-26.55 34.65-27.7L34.65-27.7Q34.65-29 33.8-29L33.8-29Q32.85-29 31.45-27.58 30.05-26.15 28.5-23.6L28.5-23.6 28.2-23.75Q28.2-27.05 29.5-29.45 30.8-31.85 32.95-33.43 35.1-35 37.75-35.75 40.4-36.5 43.1-36.5L43.1-36.5Q46.45-36.5 49.4-35.43 52.35-34.35 54.22-32.35 56.1-30.35 56.1-27.45L56.1-27.45Q56.1-22.25 49.75-19.35L49.75-19.35Q53.5-18.5 55.25-16.5 57-14.5 57-12.05L57-12.05Q57-9.9 55.72-7.73 54.45-5.55 52.1-3.73 49.75-1.9 46.42-0.78 43.1 0.35 39 0.35ZM40.95-20.85L40.95-20.85Q43.25-20.8 44.97-21.58 46.7-22.35 47.67-23.58 48.65-24.8 48.65-26.1L48.65-26.1Q48.65-27.8 46.85-29.13 45.05-30.45 41.2-30.45L41.2-30.45Q41.4-29.5 41.47-28.55 41.55-27.6 41.55-26.7L41.55-26.7Q41.55-25.25 41.37-23.8 41.2-22.35 40.95-20.85ZM40.4-5.75L40.4-5.75Q42.55-5.75 44.2-6.63 45.85-7.5 46.8-8.88 47.75-10.25 47.75-11.7L47.75-11.7Q47.75-13.7 45.85-15.4 43.95-17.1 39.9-17.5L39.9-17.5Q39.7-15.95 39.07-14.2 38.45-12.45 37.9-10.85 37.35-9.25 37.35-8.05L37.35-8.05Q37.35-7 38-6.38 38.65-5.75 40.4-5.75ZM80.05 0.35L80.05 0.35Q78.59 0.35 76.7-0.15 74.8-0.65 72.72-1.3 70.65-1.95 68.55-2.35L68.55-2.35Q66.89-0.95 65.52-0.33 64.14 0.3 63.05 0.3L63.05 0.3Q61.2 0.3 60.25-1.13 59.3-2.55 59.3-4.3L59.3-4.3Q59.3-5.55 59.8-6.73 60.3-7.9 61.27-8.65 62.25-9.4 63.75-9.4L63.75-9.4Q64.59-9.4 65.67-9.08 66.75-8.75 68-8.05L68-8.05Q70.15-9.65 71.7-11.75 73.25-13.85 74.07-15.98 74.9-18.1 74.9-19.8L74.9-19.8Q74.9-21.35 74.22-22.33 73.55-23.3 72.25-23.3L72.25-23.3Q70.7-23.3 69.87-21.93 69.05-20.55 69.05-18.6L69.05-18.6Q69.05-17.6 69.27-16.53 69.5-15.45 70-14.4L70-14.4Q67.34-14.4 65.52-15.33 63.7-16.25 62.75-17.73 61.8-19.2 61.8-20.85L61.8-20.85Q61.8-22.65 62.97-24.35 64.14-26.05 66.57-27.13 69-28.2 72.7-28.2L72.7-28.2Q76.3-28.2 78.57-27.13 80.84-26.05 81.92-24.25 83-22.45 83-20.25L83-20.25Q83-17.95 81.9-15.48 80.8-13 78.77-10.73 76.75-8.45 73.9-6.7L73.9-6.7Q74.59-6.6 75.34-6.5 76.09-6.4 76.84-6.4L76.84-6.4Q78.7-6.4 80.45-7.13 82.2-7.85 83.8-9.85L83.8-9.85Q84.7-9.3 85.2-8.15 85.7-7 85.7-5.65L85.7-5.65Q85.7-4.25 85.09-2.85 84.5-1.45 83.25-0.55 82 0.35 80.05 0.35ZM109.29 0.35L109.29 0.35Q104.74 0.35 101.84-1.35 98.94-3.05 98.94-6.9L98.94-6.9Q98.94-7.3 98.97-7.63 98.99-7.95 99.04-8.15L99.04-8.15Q99.24-9.55 99.89-11.6 100.54-13.65 101.39-15.98 102.24-18.3 103.04-20.55 103.84-22.8 104.39-24.68 104.94-26.55 104.94-27.7L104.94-27.7Q104.94-29 104.09-29L104.09-29Q103.14-29 101.74-27.58 100.34-26.15 98.79-23.6L98.79-23.6 98.49-23.75Q98.49-27.05 99.79-29.45 101.09-31.85 103.24-33.43 105.39-35 108.04-35.75 110.69-36.5 113.39-36.5L113.39-36.5Q116.74-36.5 119.69-35.43 122.64-34.35 124.52-32.35 126.39-30.35 126.39-27.45L126.39-27.45Q126.39-22.25 120.04-19.35L120.04-19.35Q123.79-18.5 125.54-16.5 127.29-14.5 127.29-12.05L127.29-12.05Q127.29-9.9 126.02-7.73 124.74-5.55 122.39-3.73 120.04-1.9 116.72-0.78 113.39 0.35 109.29 0.35ZM111.24-20.85L111.24-20.85Q113.54-20.8 115.27-21.58 116.99-22.35 117.97-23.58 118.94-24.8 118.94-26.1L118.94-26.1Q118.94-27.8 117.14-29.13 115.34-30.45 111.49-30.45L111.49-30.45Q111.69-29.5 111.77-28.55 111.84-27.6 111.84-26.7L111.84-26.7Q111.84-25.25 111.67-23.8 111.49-22.35 111.24-20.85ZM110.69-5.75L110.69-5.75Q112.84-5.75 114.49-6.63 116.14-7.5 117.09-8.88 118.04-10.25 118.04-11.7L118.04-11.7Q118.04-13.7 116.14-15.4 114.24-17.1 110.19-17.5L110.19-17.5Q109.99-15.95 109.37-14.2 108.74-12.45 108.19-10.85 107.64-9.25 107.64-8.05L107.64-8.05Q107.64-7 108.29-6.38 108.94-5.75 110.69-5.75ZM133.89 0.25L133.89 0.25Q132.49 0.25 131.41-0.93 130.34-2.1 130.34-5.3L130.34-5.3Q130.34-5.85 130.36-6.28 130.39-6.7 130.39-6.9L130.39-6.9Q130.59-8.9 130.96-11.88 131.34-14.85 131.84-18.13 132.34-21.4 132.86-24.45 133.39-27.5 133.84-29.78 134.29-32.05 134.59-32.9L134.59-32.9Q135.14-34.4 136.56-35.27 137.99-36.15 139.49-36.15L139.49-36.15Q140.79-36.15 141.86-35.4 142.94-34.65 143.34-32.85L143.34-32.85Q143.04-31.85 142.39-29.33 141.74-26.8 140.99-23.15 140.24-19.5 139.56-15.1 138.89-10.7 138.49-5.9L138.49-5.9Q138.44-5.05 138.34-3.93 138.24-2.8 138.19-1.65L138.19-1.65Q137.59-1 136.39-0.38 135.19 0.25 133.89 0.25ZM168.49 0.35L168.49 0.35Q166.69 0.35 164.41-0.3 162.14-0.95 159.66-1.73 157.19-2.5 154.74-2.85L154.74-2.85Q153.03-1.25 151.56-0.58 150.09 0.1 148.94 0.1L148.94 0.1Q147.49 0.1 146.49-0.75 145.49-1.6 144.99-2.93 144.49-4.25 144.49-5.65L144.49-5.65Q144.49-7.1 145.01-8.4 145.53-9.7 146.64-10.53 147.74-11.35 149.44-11.35L149.44-11.35Q149.78-11.35 150.19-11.3 150.59-11.25 151.03-11.15L151.03-11.15Q151.99-14.05 152.71-17.57 153.44-21.1 153.86-24.5 154.28-27.9 154.28-30.4L154.28-30.4Q154.28-31.4 154.19-31.83 154.09-32.25 153.84-32.7L153.84-32.7 153.78-32.85Q154.39-34.45 155.78-35.35 157.19-36.25 158.74-36.25L158.74-36.25Q160.44-36.25 161.53-35.02 162.64-33.8 162.64-30.95L162.64-30.95Q162.64-29.15 162.21-26.48 161.78-23.8 161.03-20.73 160.28-17.65 159.39-14.65 158.49-11.65 157.59-9.3L157.59-9.3Q159.78-8.8 162.01-8.15 164.24-7.5 166.39-7.5L166.39-7.5Q168.04-7.5 169.56-8.1 171.09-8.7 172.44-10.3L172.44-10.3Q173.44-9.65 173.91-8.45 174.39-7.25 174.39-5.9L174.39-5.9Q174.39-4.4 173.76-2.98 173.14-1.55 171.84-0.6 170.54 0.35 168.49 0.35ZM199.68 0.35L199.68 0.35Q197.88 0.35 195.61-0.3 193.33-0.95 190.86-1.73 188.38-2.5 185.93-2.85L185.93-2.85Q184.23-1.25 182.76-0.58 181.28 0.1 180.13 0.1L180.13 0.1Q178.68 0.1 177.68-0.75 176.68-1.6 176.18-2.93 175.68-4.25 175.68-5.65L175.68-5.65Q175.68-7.1 176.21-8.4 176.73-9.7 177.83-10.53 178.93-11.35 180.63-11.35L180.63-11.35Q180.98-11.35 181.38-11.3 181.78-11.25 182.23-11.15L182.23-11.15Q183.18-14.05 183.91-17.57 184.63-21.1 185.06-24.5 185.48-27.9 185.48-30.4L185.48-30.4Q185.48-31.4 185.38-31.83 185.28-32.25 185.03-32.7L185.03-32.7 184.98-32.85Q185.58-34.45 186.98-35.35 188.38-36.25 189.93-36.25L189.93-36.25Q191.63-36.25 192.73-35.02 193.83-33.8 193.83-30.95L193.83-30.95Q193.83-29.15 193.41-26.48 192.98-23.8 192.23-20.73 191.48-17.65 190.58-14.65 189.68-11.65 188.78-9.3L188.78-9.3Q190.98-8.8 193.21-8.15 195.43-7.5 197.58-7.5L197.58-7.5Q199.23-7.5 200.76-8.1 202.28-8.7 203.63-10.3L203.63-10.3Q204.63-9.65 205.11-8.45 205.58-7.25 205.58-5.9L205.58-5.9Q205.58-4.4 204.96-2.98 204.33-1.55 203.03-0.6 201.73 0.35 199.68 0.35ZM231.23 0.2L231.23 0.2Q229.78 0.25 228.33-0.05 226.88-0.35 225.88-1.3L225.88-1.3Q225.93-2.55 225.85-5 225.78-7.45 225.58-10.48 225.38-13.5 224.95-16.6 224.53-19.7 223.85-22.33 223.18-24.95 222.23-26.55 221.28-28.15 219.98-28.15L219.98-28.15Q218.83-28.15 217.38-26.9L217.38-26.9 217.03-27.2Q218.43-31.5 220.7-33.75 222.98-36 225.43-36L225.43-36Q227.58-36 229.03-34.5 230.48-33 231.35-30.48 232.23-27.95 232.6-24.83 232.98-21.7 232.98-18.45L232.98-18.45Q232.98-15.85 232.78-13.35 232.58-10.85 232.23-8.75L232.23-8.75Q234.88-12.1 236.68-16.07 238.48-20.05 239.43-23.98 240.38-27.9 240.38-31.05L240.38-31.05Q240.38-31.65 240.33-32.27 240.28-32.9 240.18-33.4L240.18-33.4Q241.23-34.75 242.88-35.48 244.53-36.2 246.18-36.2L246.18-36.2Q247.78-36.2 248.98-35.52 250.18-34.85 250.48-33.4L250.48-33.4Q249.83-28.65 247.9-23.9 245.98-19.15 243.23-14.73 240.48-10.3 237.35-6.5 234.23-2.7 231.23 0.2ZM260.38 0.35L260.38 0.35Q257.03 0.35 254.83-0.88 252.63-2.1 251.58-4.08 250.53-6.05 250.53-8.35L250.53-8.35Q250.53-10.4 251.33-12.4 252.13-14.4 253.7-16.05 255.28-17.7 257.53-18.65L257.53-18.65Q255.48-19.95 254.45-21.78 253.43-23.6 253.43-25.6L253.43-25.6Q253.43-28.2 255.13-30.65 256.83-33.1 260.08-34.7 263.33-36.3 267.88-36.3L267.88-36.3Q271.03-36.3 272.9-35.52 274.78-34.75 275.63-33.52 276.48-32.3 276.48-30.9L276.48-30.9Q276.48-29.3 275.48-27.73 274.48-26.15 272.6-25.15 270.73-24.15 268.03-24.15L268.03-24.15Q268.83-26.5 268.83-28.05L268.83-28.05Q268.83-29.6 268.18-30.3 267.53-31 266.58-31L266.58-31Q265.58-31 264.45-30.25 263.33-29.5 262.58-28.15 261.83-26.8 261.83-25L261.83-25Q261.83-24.05 262.13-22.88 262.43-21.7 263.08-20.55L263.08-20.55Q264.18-21.25 265.1-21.58 266.03-21.9 266.78-21.9L266.78-21.9Q268.33-21.9 269.03-20.83 269.73-19.75 269.73-18.4L269.73-18.4Q269.73-16.8 268.75-15.35 267.78-13.9 265.88-13.9L265.88-13.9Q264.13-13.9 261.78-15.55L261.78-15.55Q259.03-13.6 259.03-10.95L259.03-10.95Q259.03-8.9 260.3-7.85 261.58-6.8 263.58-6.8L263.58-6.8Q266.13-6.8 269.28-8.58 272.43-10.35 274.88-13.9L274.88-13.9 275.28-13.65Q275.18-10.15 273.85-7.53 272.53-4.9 270.4-3.15 268.28-1.4 265.68-0.53 263.08 0.35 260.38 0.35ZM301.87 0.35L301.87 0.35Q300.12 0.35 298.85-0.53 297.57-1.4 296.65-2.8 295.72-4.2 295.05-5.88 294.37-7.55 293.77-9.1L293.77-9.1Q292.87-11.6 292.12-13.48 291.37-15.35 290.47-16.65L290.47-16.65Q289.52-12.85 288.95-9.35 288.37-5.85 288.22-1.55L288.22-1.55Q287.32-0.7 286.2-0.25 285.07 0.2 283.92 0.2L283.92 0.2Q282.17 0.2 280.82-1.03 279.47-2.25 279.47-5.15L279.47-5.15Q279.47-7.15 280.07-9.65 280.67-12.15 281.55-14.8 282.42-17.45 283.32-19.95 284.22-22.45 284.82-24.48 285.42-26.5 285.42-27.7L285.42-27.7Q285.42-28.95 284.57-28.95L284.57-28.95Q283.62-28.95 282.27-27.53 280.92-26.1 279.52-23.55L279.52-23.55 279.22-23.65Q279.22-26.65 280.52-29 281.82-31.35 284.05-32.98 286.27-34.6 289.2-35.45 292.12-36.3 295.32-36.3L295.32-36.3Q299.57-36.3 302.22-34.98 304.87-33.65 306.15-31.58 307.42-29.5 307.42-27.15L307.42-27.15Q307.42-24.75 306.2-22.45 304.97-20.15 302.75-18.63 300.52-17.1 297.47-16.85L297.47-16.85Q298.52-16.05 299.27-14.83 300.02-13.6 300.82-12.05L300.82-12.05Q301.52-10.65 302.47-9.38 303.42-8.1 305.07-8.1L305.07-8.1Q305.92-8.1 306.47-8.53 307.02-8.95 307.42-9.95L307.42-9.95 307.72-9.8Q307.97-9.05 308.05-8.35 308.12-7.65 308.12-7.05L308.12-7.05Q308.12-3.9 306.37-1.78 304.62 0.35 301.87 0.35ZM292.97-21.25L292.97-21.25Q294.77-21.25 296.1-22.08 297.42-22.9 298.15-24.13 298.87-25.35 298.87-26.6L298.87-26.6Q298.87-28.15 297.7-29.33 296.52-30.5 293.87-30.5L293.87-30.5Q293.47-30.5 293.05-30.48 292.62-30.45 292.22-30.4L292.22-30.4Q292.27-30.05 292.27-29.73 292.27-29.4 292.27-29.4L292.27-29.4Q292.27-27.1 292.1-24.95 291.92-22.8 291.62-21.35L291.62-21.35Q291.97-21.3 292.3-21.28 292.62-21.25 292.97-21.25ZM314.97 0.25L314.97 0.25Q313.57 0.25 312.5-0.93 311.42-2.1 311.42-5.3L311.42-5.3Q311.42-5.85 311.44-6.28 311.47-6.7 311.47-6.9L311.47-6.9Q311.67-8.9 312.05-11.88 312.42-14.85 312.92-18.13 313.42-21.4 313.94-24.45 314.47-27.5 314.92-29.78 315.37-32.05 315.67-32.9L315.67-32.9Q316.22-34.4 317.65-35.27 319.07-36.15 320.57-36.15L320.57-36.15Q321.87-36.15 322.94-35.4 324.02-34.65 324.42-32.85L324.42-32.85Q324.12-31.85 323.47-29.33 322.82-26.8 322.07-23.15 321.32-19.5 320.65-15.1 319.97-10.7 319.57-5.9L319.57-5.9Q319.52-5.05 319.42-3.93 319.32-2.8 319.27-1.65L319.27-1.65Q318.67-1 317.47-0.38 316.27 0.25 314.97 0.25ZM332.77 0.2L332.77 0.2Q330.97 0.2 329.52-1.3 328.07-2.8 328.07-6.25L328.07-6.25Q328.07-9.05 328.72-11.75 329.37-14.45 330.19-17.23 331.02-20 331.59-22.98 332.17-25.95 331.97-29.25L331.97-29.25Q330.62-29.05 329.32-28.55 328.02-28.05 326.77-27.1L326.77-27.1Q326.77-30.25 327.32-32.23 327.87-34.2 329.47-35.1 331.07-36 334.22-36L334.22-36Q335.92-36 338.02-35.75 340.12-35.5 342.34-35.25 344.57-35 346.57-35L346.57-35Q348.52-35 350.07-35.38 351.62-35.75 352.47-36.75L352.47-36.75Q353.47-36.1 353.99-34.98 354.52-33.85 354.52-32.55L354.52-32.55Q354.52-31.2 353.89-29.93 353.27-28.65 351.97-27.83 350.67-27 348.57-27L348.57-27Q346.37-27 343.77-27.7 341.17-28.4 338.42-28.9L338.42-28.9Q338.67-27.8 338.79-26.7 338.92-25.6 338.92-24.45L338.92-24.45Q338.92-23.2 338.82-21.98 338.72-20.75 338.52-19.45L338.52-19.45Q339.57-20 341.07-20.45 342.57-20.9 344.14-21.2 345.72-21.5 346.97-21.5L346.97-21.5Q347.77-21.5 348.37-21.35L348.37-21.35Q348.87-20.3 348.87-18.8L348.87-18.8Q348.87-16.4 347.67-13.9L347.67-13.9 347.32-13.75Q345.47-14.75 343.04-15.3 340.62-15.85 337.97-16.05L337.97-16.05Q337.47-13.2 337.02-10.25 336.57-7.3 336.57-4.2L336.57-4.2Q336.57-3.55 336.59-2.85 336.62-2.15 336.67-1.45L336.67-1.45Q335.02 0.2 332.77 0.2ZM358.12 0.25L358.12 0.25Q356.71 0.25 355.64-0.93 354.56-2.1 354.56-5.3L354.56-5.3Q354.56-5.85 354.59-6.28 354.62-6.7 354.62-6.9L354.62-6.9Q354.81-8.9 355.19-11.88 355.56-14.85 356.06-18.13 356.56-21.4 357.09-24.45 357.62-27.5 358.06-29.78 358.51-32.05 358.81-32.9L358.81-32.9Q359.37-34.4 360.79-35.27 362.21-36.15 363.71-36.15L363.71-36.15Q365.01-36.15 366.09-35.4 367.17-34.65 367.56-32.85L367.56-32.85Q367.26-31.85 366.62-29.33 365.96-26.8 365.21-23.15 364.46-19.5 363.79-15.1 363.12-10.7 362.71-5.9L362.71-5.9Q362.67-5.05 362.56-3.93 362.46-2.8 362.42-1.65L362.42-1.65Q361.81-1 360.62-0.38 359.42 0.25 358.12 0.25ZM379.31 0.35L379.31 0.35Q375.96 0.35 373.76-0.88 371.56-2.1 370.51-4.08 369.46-6.05 369.46-8.35L369.46-8.35Q369.46-10.4 370.26-12.4 371.06-14.4 372.64-16.05 374.21-17.7 376.46-18.65L376.46-18.65Q374.41-19.95 373.39-21.78 372.36-23.6 372.36-25.6L372.36-25.6Q372.36-28.2 374.06-30.65 375.76-33.1 379.01-34.7 382.26-36.3 386.81-36.3L386.81-36.3Q389.96-36.3 391.84-35.52 393.71-34.75 394.56-33.52 395.41-32.3 395.41-30.9L395.41-30.9Q395.41-29.3 394.41-27.73 393.41-26.15 391.54-25.15 389.66-24.15 386.96-24.15L386.96-24.15Q387.76-26.5 387.76-28.05L387.76-28.05Q387.76-29.6 387.11-30.3 386.46-31 385.51-31L385.51-31Q384.51-31 383.39-30.25 382.26-29.5 381.51-28.15 380.76-26.8 380.76-25L380.76-25Q380.76-24.05 381.06-22.88 381.36-21.7 382.01-20.55L382.01-20.55Q383.11-21.25 384.04-21.58 384.96-21.9 385.71-21.9L385.71-21.9Q387.26-21.9 387.96-20.83 388.66-19.75 388.66-18.4L388.66-18.4Q388.66-16.8 387.69-15.35 386.71-13.9 384.81-13.9L384.81-13.9Q383.06-13.9 380.71-15.55L380.71-15.55Q377.96-13.6 377.96-10.95L377.96-10.95Q377.96-8.9 379.24-7.85 380.51-6.8 382.51-6.8L382.51-6.8Q385.06-6.8 388.21-8.58 391.36-10.35 393.81-13.9L393.81-13.9 394.21-13.65Q394.11-10.15 392.79-7.53 391.46-4.9 389.34-3.15 387.21-1.4 384.61-0.53 382.01 0.35 379.31 0.35ZM420.81 0.35L420.81 0.35Q419.06 0.35 417.79-0.53 416.51-1.4 415.59-2.8 414.66-4.2 413.99-5.88 413.31-7.55 412.71-9.1L412.71-9.1Q411.81-11.6 411.06-13.48 410.31-15.35 409.41-16.65L409.41-16.65Q408.46-12.85 407.89-9.35 407.31-5.85 407.16-1.55L407.16-1.55Q406.26-0.7 405.14-0.25 404.01 0.2 402.86 0.2L402.86 0.2Q401.11 0.2 399.76-1.03 398.41-2.25 398.41-5.15L398.41-5.15Q398.41-7.15 399.01-9.65 399.61-12.15 400.49-14.8 401.36-17.45 402.26-19.95 403.16-22.45 403.76-24.48 404.36-26.5 404.36-27.7L404.36-27.7Q404.36-28.95 403.51-28.95L403.51-28.95Q402.56-28.95 401.21-27.53 399.86-26.1 398.46-23.55L398.46-23.55 398.16-23.65Q398.16-26.65 399.46-29 400.76-31.35 402.99-32.98 405.21-34.6 408.14-35.45 411.06-36.3 414.26-36.3L414.26-36.3Q418.51-36.3 421.16-34.98 423.81-33.65 425.09-31.58 426.36-29.5 426.36-27.15L426.36-27.15Q426.36-24.75 425.14-22.45 423.91-20.15 421.69-18.63 419.46-17.1 416.41-16.85L416.41-16.85Q417.46-16.05 418.21-14.83 418.96-13.6 419.76-12.05L419.76-12.05Q420.46-10.65 421.41-9.38 422.36-8.1 424.01-8.1L424.01-8.1Q424.86-8.1 425.41-8.53 425.96-8.95 426.36-9.95L426.36-9.95 426.66-9.8Q426.91-9.05 426.99-8.35 427.06-7.65 427.06-7.05L427.06-7.05Q427.06-3.9 425.31-1.78 423.56 0.35 420.81 0.35ZM411.91-21.25L411.91-21.25Q413.71-21.25 415.04-22.08 416.36-22.9 417.09-24.13 417.81-25.35 417.81-26.6L417.81-26.6Q417.81-28.15 416.64-29.33 415.46-30.5 412.81-30.5L412.81-30.5Q412.41-30.5 411.99-30.48 411.56-30.45 411.16-30.4L411.16-30.4Q411.21-30.05 411.21-29.73 411.21-29.4 411.21-29.4L411.21-29.4Q411.21-27.1 411.04-24.95 410.86-22.8 410.56-21.35L410.56-21.35Q410.91-21.3 411.24-21.28 411.56-21.25 411.91-21.25Z" opacity="1" transform="matrix(1,0,0,1,0,0)" fill="#030303" class="wordmark-text-0" data-fill-palette-color="primary" id="text-0"></path></svg></g></svg></g></svg></g></svg></g></svg></g></svg></g></svg></g><g mask="url(#ab9a5c4d-4ed6-4dc8-8259-e98bd7beba3d)"><g transform="matrix(4.362989323843416, 0, 0, 4.362989323843416, 67.41569395017794, 1)"><svg xmlns="http://www.w3.org/2000/svg" xmlns:xlink="http://www.w3.org/1999/xlink" version="1.1" x="0" y="0" viewBox="10.125000000000002 11.799999999999997 59.75 56.2" enable-background="new 0 0 80 80" xml:space="preserve" height="56.2" width="59.75" class="icon-none" data-fill-palette-color="accent" id="none"><g fill="#030303" data-fill-palette-color="accent"><path fill="#030303" d="M48.7 68H31.3c-4.4 0-8.5-2.4-10.7-6.3l-8.9-15.7c-2.1-3.8-2.1-8.4 0-12.2l8.9-15.7c2.2-3.9 6.3-6.3 10.7-6.3h17.4c4.4 0 8.5 2.4 10.7 6.3l8.9 15.7c2.1 3.8 2.1 8.4 0 12.2l-8.9 15.7C57.2 65.6 53.1 68 48.7 68zM31.3 14c-3.7 0-7.2 2-9 5.2l-8.9 15.7c-1.8 3.1-1.8 7.1 0 10.2l8.9 15.7c1.8 3.2 5.3 5.2 9 5.2h17.4c3.7 0 7.2-2 9-5.2l8.9-15.7c1.8-3.1 1.8-7.1 0-10.2l-8.9-15.7c-1.8-3.2-5.3-5.2-9-5.2H31.3z" data-fill-palette-color="accent"></path></g><g fill="#030303" data-fill-palette-color="accent"><path fill="#030303" d="M51 45.3l-7.3-2.4c-0.9-0.3-1.2-0.9-1.1-1.9h-0.2c2.1-2 3.5-3.8 3.5-6.7 0-3.8-2.6-7.1-5.8-7.1-3.2 0-5.8 3.4-5.8 7.2 0 2.9 1.4 4.6 3.5 6.6h-0.3c0.1 1-0.3 1.6-1.3 1.8l-7.3 3.1c-0.9 0.4-2.1 1.2-2.1 2.2V52h26v-3.9C53 47.1 52 45.7 51 45.3z" data-fill-palette-color="accent"></path></g></svg></g></g></svg></g><defs></defs></svg><rect width="395.52" height="247.2" fill="none" stroke="none" visibility="hidden"></rect></g></svg></g></svg>